<svg xmlns="http://www.w3.org/2000/svg" width="709" height="553" viewBox="0 0 709 553" fill="none">
<path d="M13.3311 75.1748C6.37865 35.9695 36.4226 -0.000242207 76.2396 -0.000240579C188.834 -0.000235974 395.663 -0.000230071 483 -0.000244122C583.429 -0.00026028 636.524 -0.000214461 662.971 50.8939C676.667 77.2494 674.154 108.508 668.62 137.69L619.676 395.796C615.788 416.297 598.037 431.247 577.174 431.593L115.502 439.228C93.8937 439.585 75.2244 424.197 71.4508 402.917L13.3311 75.1748Z" fill="#35B6B4"/>





<path d="M123.005 454.334C123.005 454.334 120.728 422.727 108.734 399.971C98.1094 379.845 94.9998 377.845 94.9998 377.845C94.9998 377.845 108.216 418.95 116.415 455.074L123.005 454.334Z" fill="#6577B0"/>
<path d="M133.018 455.797C133.018 455.797 136.406 413.895 130.871 379.456C126.022 349.294 123.393 343.165 123.393 343.165C123.393 343.165 117.082 386.844 129.057 455.352L133.018 455.797Z" fill="#6577B0"/>
<path d="M139.663 464.295C139.663 464.295 153.86 417.302 151.121 377.363C148.733 342.387 145.401 334.999 145.401 334.999C145.401 334.999 125.818 383.548 132.87 463.166L139.663 464.295Z" fill="#6577B0"/>
<path d="M125.466 453.815C125.466 453.815 126.965 422.172 117.729 398.379C109.566 377.326 106.697 375.049 106.697 375.049C106.697 375.049 114.953 417.209 118.803 453.908L125.466 453.815Z" fill="#253C8C"/>
<path d="M127.428 451.464C127.428 451.464 123.689 419.968 131.186 395.694C137.831 374.216 140.533 371.772 140.533 371.772C140.533 371.772 135.295 414.321 134.073 451.186L127.428 451.464Z" fill="#253C8C"/>
<path d="M140.57 469.109C140.57 469.109 146.086 437.818 160.357 416.191C172.999 397.046 176.294 395.324 176.294 395.324C176.294 395.324 158.913 435.133 147.049 470.405L140.57 469.109Z" fill="#A5B2D4"/>
<path d="M142.199 458.777C142.199 458.777 141.755 427.097 151.768 403.582C160.616 382.77 163.559 380.567 163.559 380.567C163.559 380.567 153.897 422.468 148.825 459.074L142.199 458.777Z" fill="#253C8C"/>
<path d="M138.146 458.315C138.146 458.315 134.407 426.819 141.903 402.545C148.548 381.067 151.25 378.622 151.25 378.622C151.25 378.622 146.012 421.172 144.791 458.037L138.146 458.315Z" fill="#253C8C"/>
<path d="M128.502 452.001C128.502 452.001 132.259 420.505 124.781 396.231C118.155 374.753 115.453 372.309 115.453 372.309C115.453 372.309 120.672 414.858 121.875 451.723L128.502 452.001Z" fill="#A5B2D4"/>
<path d="M147.845 458.018C147.845 458.018 151.602 426.523 144.124 402.249C137.498 380.77 134.795 378.326 134.795 378.326C134.795 378.326 140.015 420.876 141.218 457.741L147.845 458.018Z" fill="#A5B2D4"/>
<path d="M109.344 439.965L114.638 520.25C114.712 521.38 115.748 522.268 117.007 522.268H156.636C157.895 522.268 158.931 521.38 159.005 520.25L160.042 504.66L164.299 439.965C164.392 438.725 163.3 437.688 161.93 437.688H111.713C110.344 437.688 109.27 438.743 109.344 439.965Z" fill="#A5B2D4"/>
<path opacity="0.05" d="M112.584 437.688C116.341 466.036 134.407 490.384 160.024 504.66L164.281 439.965C164.374 438.725 163.282 437.688 161.912 437.688H112.584Z" fill="#253C8C"/>
<g opacity="0.5">
<path opacity="0.46" d="M526.807 211.273H584.085V394.625H526.807V211.273Z" fill="url(#paint0_linear)"/>
<path opacity="0.46" d="M428.373 211.273H485.651V394.625H428.373V211.273Z" fill="url(#paint1_linear)"/>
<path d="M371.503 400.848V388.438L584.075 388.438V400.848L371.503 400.848Z" fill="#D3D7E1"/>
<path d="M371.496 223.709V211.299L584.068 211.299V223.709L371.496 223.709Z" fill="#D3D7E1"/>
<path d="M371.513 347.529H584.085V359.939H371.513V347.529Z" fill="#D3D7E1"/>
<path d="M371.513 275.726H584.085V288.135H371.513V275.726Z" fill="#D3D7E1"/>
<g opacity="0.54">
<path opacity="0.1" d="M567.851 275.726H581.542V288.135H567.851V275.726Z" fill="black"/>
<path opacity="0.1" d="M567.852 347.529H581.542V359.939H567.852V347.529Z" fill="black"/>
</g>
<g opacity="0.54">
<path opacity="0.1" d="M470.004 275.726H483.695V288.135H470.004V275.726Z" fill="black"/>
<path opacity="0.1" d="M470.004 347.529H483.695V359.939H470.004V347.529Z" fill="black"/>
</g>
<path d="M570.394 211.273H584.085V400.802H570.394V211.273Z" fill="#D3D7E1"/>
<g opacity="0.3">
<path opacity="0.3" d="M472.686 275.726H486.377V288.135H472.686V275.726Z" fill="white"/>
<path opacity="0.3" d="M472.686 347.529H486.377V359.939H472.686V347.529Z" fill="white"/>
</g>
<g opacity="0.3">
<path opacity="0.3" d="M372.323 275.726H386.014V288.135H372.323V275.726Z" fill="white"/>
<path opacity="0.3" d="M372.323 347.529H386.014V359.939H372.323V347.529Z" fill="white"/>
</g>
<path d="M471.96 211.273H485.651V400.802H471.96V211.273Z" fill="#D3D7E1"/>
<path d="M371.485 211.273H385.176V400.802H371.485V211.273Z" fill="#D3D7E1"/>
<path d="M558.855 230.195H570.395V275.67H558.855V230.195Z" fill="#AEBBEB"/>
<path d="M501.353 230.195H512.893V275.67H501.353V230.195Z" fill="#AEBBEB"/>
<path d="M512.893 230.195H524.433V275.67H512.893V230.195Z" fill="#D3D7E1"/>
<path d="M550.501 234.499H558.855V275.67H550.501V234.499Z" fill="#D3D7E1"/>
<path d="M485.679 234.499H494.033V275.67H485.679V234.499Z" fill="#8C909B"/>
<path d="M492.999 234.499H501.354V275.67H492.999V234.499Z" fill="#D3D7E1"/>
<path d="M537.481 234.499H550.501V275.67H537.481V234.499Z" fill="#8C909B"/>
<path d="M524.433 230.195H537.453V275.67H524.433V230.195Z" fill="#AEBBEB"/>
<path d="M460.448 230.196H471.988V275.67H460.448V230.196Z" fill="#AEBBEB"/>
<path d="M385.176 271.701L395.766 275.865L415.771 234.164L405.209 229.999L385.176 271.701Z" fill="#AEBBEB"/>
<path d="M414.961 230.195H426.025V275.67H414.961V230.195Z" fill="#D3D7E1"/>
<path d="M452.094 234.499H460.448V275.67H452.094V234.499Z" fill="#D3D7E1"/>
<path d="M439.046 234.499H452.066V275.67H439.046V234.499Z" fill="#8C909B"/>
<path d="M426.026 230.195H439.046V275.67H426.026V230.195Z" fill="#AEBBEB"/>
<path d="M461.146 302.083H472.686V347.557H461.146V302.083Z" fill="#AEBBEB"/>
<path d="M403.672 315.974H415.211V347.557H403.672V315.974Z" fill="#AEBBEB"/>
<path d="M415.211 297.89H426.751V347.557H415.211V297.89Z" fill="#D3D7E1"/>
<path d="M452.82 306.387H461.174V347.557H452.82V306.387Z" fill="#D3D7E1"/>
<path d="M385.203 294.34H395.318V347.529H385.203V294.34Z" fill="#8C909B"/>
<path d="M395.318 306.387H403.672V347.557H395.318V306.387Z" fill="#D3D7E1"/>
<path d="M439.771 295.458H452.792V347.529H439.771V295.458Z" fill="#8C909B"/>
<path d="M426.752 302.083H439.772V347.557H426.752V302.083Z" fill="#AEBBEB"/>
<path d="M558.855 302.082H570.395V347.557H558.855V302.082Z" fill="#AEBBEB"/>
<path d="M513.675 302.082H524.433V347.557H513.675V302.082Z" fill="#D3D7E1"/>
<path d="M550.501 306.387H558.855V347.557H550.501V306.387Z" fill="#D3D7E1"/>
<path d="M485.651 344.063L493.083 347.529L513.983 310.97L506.551 307.505L485.651 344.063Z" fill="#D3D7E1"/>
<path d="M537.481 306.387H550.501V347.557H537.481V306.387Z" fill="#8C909B"/>
<path d="M524.433 302.082H537.453V347.557H524.433V302.082Z" fill="#AEBBEB"/>
<path d="M485.678 359.548H570.45V388.14H485.678V359.548Z" fill="#8C909B"/>
<path d="M495.653 385.178H560.476V362.454H495.653V385.178ZM558.967 383.836H497.134V363.852H558.967V383.836Z" fill="#D3D7E1"/>
<path d="M528.064 377.799C530.467 377.799 532.451 376.01 532.451 373.83C532.451 371.65 530.495 369.861 528.064 369.861C525.661 369.861 523.677 371.65 523.677 373.83C523.677 376.01 525.633 377.799 528.064 377.799ZM528.064 371.231C529.657 371.231 530.942 372.404 530.942 373.83C530.942 375.255 529.657 376.429 528.064 376.429C526.471 376.429 525.186 375.255 525.186 373.83C525.186 372.404 526.471 371.231 528.064 371.231Z" fill="#D3D7E1"/>
<path d="M385.204 359.548H471.987V388.14H385.204V359.548Z" fill="#8C909B"/>
<path d="M395.402 385.178H461.761V362.454H395.402V385.178ZM460.224 383.836H396.939V363.852H460.224V383.836Z" fill="#D3D7E1"/>
<path d="M428.596 377.799C431.055 377.799 433.067 376.01 433.067 373.83C433.067 371.65 431.055 369.861 428.596 369.861C426.138 369.861 424.126 371.65 424.126 373.83C424.126 376.01 426.11 377.799 428.596 377.799ZM428.596 371.231C430.217 371.231 431.53 372.404 431.53 373.83C431.53 375.255 430.217 376.429 428.596 376.429C426.976 376.429 425.663 375.255 425.663 373.83C425.635 372.404 426.948 371.231 428.596 371.231Z" fill="#D3D7E1"/>
<g opacity="0.2">
<path opacity="0.2" d="M475.341 211.273L570.395 305.297V270.052L510.965 211.273H475.341Z" fill="white"/>
<path opacity="0.2" d="M447.261 211.273L570.395 333.051V315.442L465.087 211.273H447.261Z" fill="white"/>
<path opacity="0.2" d="M385.177 237.825V273.07L501.829 388.42H537.453L385.177 237.825Z" fill="white"/>
<path opacity="0.2" d="M385.176 283.216V300.825L473.748 388.42H491.574L385.176 283.216Z" fill="white"/>
</g>
</g>
<path d="M577.58 147.468C589.076 135.968 589.076 117.322 577.58 105.822C566.084 94.3221 547.444 94.3221 535.948 105.822C524.452 117.322 524.451 135.968 535.948 147.468C547.444 158.968 566.084 158.968 577.58 147.468Z" fill="#A5B2D4"/>
<path d="M556.763 153.542C571.617 153.542 583.659 141.496 583.659 126.636C583.659 111.777 571.617 99.7306 556.763 99.7306C541.908 99.7306 529.866 111.777 529.866 126.636C529.866 141.496 541.908 153.542 556.763 153.542Z" fill="white"/>
<path d="M557.45 109.318H556.076V126.602H557.45V109.318Z" fill="#A5B2D4"/>
<path d="M572.673 109.766L556.277 126.167L557.249 127.139L573.644 110.738L572.673 109.766Z" fill="#A5B2D4"/>
<path d="M556.893 126.593L556.703 126.673L565.755 148.139L565.945 148.059L556.893 126.593Z" fill="#A5B2D4"/>
<path d="M556.763 128.973C558.053 128.973 559.098 127.927 559.098 126.636C559.098 125.346 558.053 124.3 556.763 124.3C555.473 124.3 554.427 125.346 554.427 126.636C554.427 127.927 555.473 128.973 556.763 128.973Z" fill="#A5B2D4"/>
<path d="M593.645 436.462L558.132 522.967L544.889 521.402L559.977 436.462H593.645Z" fill="#22397C"/>
<path d="M586.548 400.407C586.548 400.407 553.941 401.524 533.321 420.81C511.946 440.822 493.45 532.274 493.45 532.274L509.404 531.771L551.846 435.12C551.846 435.12 623.737 447.698 644.329 429.53C651.37 423.297 648.436 396.354 648.436 396.354L586.548 400.407Z" fill="#253C8C"/>
<path d="M469.281 548.569C474.31 548.513 479.563 548.066 484.592 547.479C495.908 546.137 506.051 543.929 509.879 543.287C510.326 543.203 510.661 542.7 510.633 542.085L510.605 540.128V539.933L485.123 543.37L467.688 545.718C467.688 545.718 467.269 548.597 469.281 548.569Z" fill="#A5B2D4"/>
<path d="M467.688 545.718C467.828 547.06 475.819 546.361 484.816 545.131C496.439 543.566 509.683 541.106 509.683 541.106C510.186 541.051 510.577 540.603 510.633 540.1C510.633 540.044 510.633 539.988 510.633 539.905L509.795 531.044L493.812 531.24C493.812 531.24 491.885 532.889 489.258 534.818C486.772 536.662 483.67 538.759 481.044 539.96C475.539 542.476 467.381 542.839 467.688 545.718Z" fill="#203570"/>
<path d="M523.262 532.386C527.398 532.805 531.756 532.945 535.947 532.917C545.363 532.861 553.913 531.995 557.098 531.799C557.462 531.771 557.797 531.38 557.825 530.905L557.993 529.284L558.021 529.116L536.758 529.563L522.201 529.871C522.201 529.899 521.614 532.218 523.262 532.386Z" fill="#A5B2D4"/>
<path d="M522.201 529.899C522.201 531.017 528.823 531.184 536.311 531.017C546.006 530.793 557.127 530.038 557.127 530.038C557.546 530.038 557.909 529.731 557.993 529.312C557.993 529.256 558.021 529.2 558.021 529.144L558.356 522.101L545 520.479C545 520.479 543.268 521.653 540.921 522.995C538.714 524.281 535.976 525.706 533.684 526.461C528.962 527.97 522.229 527.495 522.201 529.899Z" fill="#203570"/>
<path d="M533.88 348.531C533.88 348.531 528.739 349.118 525.498 349.453C522.229 349.789 515.523 349.453 512.813 348.559C510.103 347.665 506.247 347.301 506.806 346.295C507.281 345.429 513.511 347.022 513.958 347.05C514.406 347.078 520.497 346.966 520.497 346.966C520.497 346.966 514.266 345.988 512.254 345.764C510.634 345.596 503.872 343.612 504.095 342.801C504.542 341.152 511.835 343.752 513.064 343.919C515.635 344.255 520.022 344.981 519.938 344.786C519.826 344.59 515.579 343.64 513.148 343.416C510.662 343.165 503.313 339.895 503.453 338.721C503.592 337.491 512.701 341.208 513.651 341.32C516.389 341.6 519.463 341.991 519.854 341.711C520.245 341.46 515.97 340.565 514.238 339.839C512.506 339.112 503.509 336.373 503.844 335.199C504.179 334.053 511.5 336.736 516.389 337.742C518.429 338.162 520.525 338.86 521.81 338.413C523.123 337.994 523.905 337.575 523.905 337.575C523.905 337.575 524.017 335.562 520.748 334.193C519.044 333.466 517.451 332.264 517.647 331.538C517.87 330.839 520.301 332.628 521.502 332.6C522.704 332.544 526.867 334.025 528.516 335.982C529.298 336.932 530.639 337.91 531.84 338.693C533.238 339.587 534.802 340.202 536.451 340.398L533.88 348.531Z" fill="#F9C5A2"/>
<path d="M610.801 280.892L626.028 279.551C626.028 279.551 625.609 272.172 625.553 270.719C625.525 269.824 625.525 269.042 625.525 268.511C625.525 267.979 625.525 267.644 625.525 267.644L618.764 269.069L618.652 269.097L615.327 269.796L609.096 271.11L609.599 273.29L609.767 273.989L610.801 280.892Z" fill="#F9C5A2"/>
<path d="M596.663 256.352C596.887 257.917 597.585 257.973 598.34 259.622C598.787 260.628 599.29 262.194 599.709 264.989C600.184 267.979 601.441 270.076 603.201 271.473C605.465 273.262 608.594 273.933 612.003 273.933C614.21 273.933 616.334 273.318 618.206 272.228C623.179 269.321 626.616 263.06 626.616 255.793C626.616 245.759 616.054 234.747 607.979 235.026C598.424 235.334 596.105 242.07 595.965 248.666C595.993 251.405 596.328 254.144 596.663 256.352Z" fill="#F9C5A2"/>
<path d="M597.194 248.051C597.417 248.107 597.641 248.163 597.837 248.219C599.15 248.666 603.732 250.343 605.157 252.719C606.833 255.514 607.616 263.116 609.488 262.613C612.701 261.747 608.761 255.234 610.633 253.725C613.455 251.433 616.026 257.358 616.221 260.209C617.339 276.56 623.151 273.653 626.112 271.613C628.18 270.187 628.348 268.203 632.623 263.116C639.44 254.955 640.725 244.194 634.662 240.896C626.56 236.48 631.086 227.592 615.132 229.688C606.861 230.75 599.317 229.548 595.266 228.626C593.45 228.207 591.69 229.408 591.354 231.225C590.432 236.396 589.79 245.787 597.194 248.051Z" fill="#253C8C"/>
<path d="M652.628 293.917C651.371 285.784 641.172 280.697 635.78 279.271C633.573 278.684 630.946 278.181 628.04 277.818L626.671 273.933L609.097 275.163L608.342 278.209C591.131 282.094 588.923 286.846 586.409 294.811C577.719 322.454 570.147 337.072 570.147 337.072L532.791 339.252L532.036 349.062C532.036 349.062 574.758 358.621 580.904 357.391C585.096 356.553 594.651 335.507 595.964 328.771C595.964 328.771 595.881 346.854 595.992 356.609C596.16 373.882 595.35 390.4 585.179 400.462C582.441 403.173 592.165 407.673 595.992 407.925L645.587 411.475C653.941 412.593 649.834 403.257 650.225 399.484C651.51 386.879 652.963 370.891 653.941 344.087C656.624 343.416 659.306 342.326 660.926 340.733C664.642 337.072 652.628 293.917 652.628 293.917Z" fill="white"/>
<path opacity="0.3" d="M650.812 309.345L653.997 344.087C653.997 344.087 654.137 321 650.812 309.345Z" fill="#6577B0"/>
<path opacity="0.3" d="M609.124 278.293C610.605 277.958 612.114 277.762 613.623 277.566C615.132 277.371 616.64 277.259 618.177 277.203C619.686 277.147 621.223 277.147 622.731 277.231C624.24 277.343 625.777 277.482 627.258 277.846C626.503 277.818 625.749 277.762 624.995 277.762C624.24 277.734 623.486 277.734 622.731 277.734C621.223 277.762 619.714 277.79 618.205 277.846C616.696 277.902 615.187 277.986 613.679 278.041L611.416 278.153L609.124 278.293Z" fill="#6577B0"/>
<path d="M603.117 258.588C603.257 258.616 603.452 258.756 603.648 258.952L610.326 253.921C611.248 253.222 612.505 253.222 613.427 253.921C614.824 254.955 615.774 256.911 616.249 259.678C616.445 260.824 615.942 261.97 614.936 262.585L607.141 267.42C607.141 267.896 607.085 268.259 606.889 268.51C606.079 269.712 604.486 270.914 603.257 271.501C601.469 270.104 600.211 268.007 599.764 265.017C599.317 262.194 598.842 260.629 598.395 259.65C599.485 259.231 602.083 258.365 603.117 258.588ZM614.769 262.333C615.663 261.774 616.11 260.74 615.942 259.706C615.355 256.324 614.154 254.815 613.232 254.116C612.841 253.809 612.338 253.669 611.863 253.669C611.36 253.669 610.885 253.837 610.466 254.144L603.788 259.147C605.045 260.629 606.917 264.709 607.085 267.085L614.769 262.333Z" fill="#253C8C"/>
<path d="M680.652 534.566C679.674 534.566 678.752 534.762 677.914 535.125L671.543 527.131L624.883 522.436V470.281H623.206V439.452H610.661V470.281H608.984V522.436L562.323 527.131L556.204 534.79C555.646 534.65 555.059 534.538 554.444 534.538C550.644 534.538 547.571 537.613 547.571 541.414C547.571 545.215 550.644 548.289 554.444 548.289C558.244 548.289 561.318 545.215 561.318 541.414C561.318 539.793 560.759 538.311 559.837 537.137L564.084 532.47H608.984V532.61H613.259V539.737C611.555 540.995 610.465 543.007 610.465 545.271C610.465 549.072 613.539 552.147 617.339 552.147C621.139 552.147 624.212 549.072 624.212 545.271C624.212 543.007 623.094 540.995 621.418 539.737V532.61H624.883V532.47H669.783L674.729 537.92C674.114 538.954 673.751 540.128 673.751 541.414C673.751 545.215 676.824 548.289 680.624 548.289C684.424 548.289 687.498 545.215 687.498 541.414C687.498 537.641 684.424 534.566 680.652 534.566Z" fill="#253C8C"/>
<path d="M669.392 377.935L662.491 376.397C661.513 376.174 660.898 375.195 661.122 374.217L674.841 312.532C675.064 311.553 676.042 310.939 677.02 311.162L683.921 312.699C684.899 312.923 685.514 313.901 685.291 314.879L671.572 376.565C671.32 377.543 670.37 378.158 669.392 377.935Z" fill="#A5B2D4"/>
<path d="M637.456 381.708C637.456 378.773 635.081 376.397 632.147 376.397H550.226C547.292 376.397 544.917 378.773 544.917 381.708V382.546H637.456V381.708Z" fill="#A5B2D4"/>
<path d="M685.989 308.898C684.034 308.479 682.134 309.709 681.687 311.637L666.291 381.568C665.872 383.525 667.102 385.425 669.029 385.872C670.985 386.292 672.885 385.062 673.332 383.133L679.2 356.469V417.344C679.2 425.058 673.947 431.598 666.85 433.527C665.76 431.179 663.357 429.53 660.591 429.53H621.614L599.457 388.695H632.148C635.082 388.695 637.457 386.32 637.457 383.385V382.546H544.917V383.385C544.917 386.32 547.292 388.695 550.226 388.695H592.724L614.88 429.53H549.304C545.476 429.53 542.403 432.633 542.403 436.434C542.403 440.263 545.504 443.337 549.304 443.337H660.563C663.777 443.337 666.487 441.129 667.241 438.139C676.685 435.931 683.754 427.462 683.754 417.344V335.618L688.7 313.202C689.147 311.246 687.917 309.317 685.989 308.898Z" fill="#22397C"/>
<path d="M414.574 273.933C414.574 273.933 414.295 274.827 413.624 275.051C412.954 275.274 411.808 275.33 410.746 275.135C409.685 274.911 408.93 274.827 408.455 274.771C408.008 274.715 408.176 273.765 408.176 273.765L414.574 273.933Z" fill="#F4B68C"/>
<path opacity="0.1" d="M406.807 270.076C408.231 272.368 411.221 273.765 414.49 273.458C414.211 273.178 413.568 272.982 412.898 272.34C412.087 271.529 411.333 272.116 408.902 270.719C408.12 270.299 407.449 270.076 406.807 270.076Z" fill="white"/>
<path d="M397.894 274.044C398.117 272.284 398.508 268.287 398.816 266.61C399.626 262.138 400.38 261.02 401.498 261.02C402.643 261.02 403.063 265.52 402.783 267.336C402.504 269.153 403.342 272.507 403.342 272.507C403.342 272.507 412.199 260.992 415.943 260.097C418.178 259.566 421.755 261.439 422.537 262.361C424.661 264.905 424.158 268.65 422.034 272.871C419.631 277.65 416.418 280.585 409.629 286.231C407.533 287.991 402.811 290.842 402.811 290.842L395.1 284.721C397.67 282.206 397.698 275.805 397.894 274.044Z" fill="#F9C5A2"/>
<path d="M394.653 284.749L403.147 291.038C403.23 291.094 403.37 291.094 403.426 291.01L404.628 289.389C404.683 289.305 404.683 289.165 404.6 289.11L396.106 282.821C396.022 282.765 395.882 282.765 395.826 282.849L394.625 284.47C394.541 284.554 394.569 284.693 394.653 284.749Z" fill="white"/>
<path d="M337.011 312.532C337.877 314.684 350.367 333.047 366.991 341.46C369.087 342.522 380.738 328.882 385.768 321.727C388.59 317.73 402.392 294.169 403.705 291.401C403.817 291.15 403.789 290.898 403.65 290.703C403.594 290.647 394.764 284.442 394.653 284.414C394.429 284.386 394.178 284.47 394.038 284.666C394.038 284.666 374.004 305.852 364.449 316.249C364.449 316.249 345.086 289.138 336.508 283.324C325.499 275.917 331.814 299.759 337.011 312.532Z" fill="white"/>
<path opacity="0.3" d="M336.48 283.352C336.48 283.352 344.471 299.703 342.459 320.386C342.459 320.358 331.004 289.277 336.48 283.352Z" fill="#6577B0"/>
<path d="M275.681 377.373L285.329 375.465L294.545 422.105L284.896 424.012L275.681 377.373Z" fill="#253C8C"/>
<path d="M254.391 533.448C255.425 533.448 256.43 533.672 257.324 534.063L264.17 525.482L314.295 520.423V464.384H316.084V431.263H329.551V464.384H331.339V520.423L381.465 525.482L388.031 533.7C388.646 533.532 389.26 533.448 389.931 533.448C394.01 533.448 397.307 536.746 397.307 540.827C397.307 544.907 394.01 548.206 389.931 548.206C385.851 548.206 382.554 544.907 382.554 540.827C382.554 539.094 383.169 537.501 384.147 536.243L379.593 531.212H331.339V531.352H326.729V539.01C328.545 540.352 329.747 542.504 329.747 544.935C329.747 549.016 326.45 552.314 322.37 552.314C318.291 552.314 314.994 549.016 314.994 544.935C314.994 542.504 316.195 540.352 318.012 539.01V531.352H314.268V531.212H266.014L260.705 537.054C261.348 538.144 261.739 539.429 261.739 540.799C261.739 544.88 258.442 548.178 254.363 548.178C250.283 548.178 246.986 544.88 246.986 540.799C247.014 536.746 250.311 533.448 254.391 533.448Z" fill="#253C8C"/>
<path d="M282.751 420.642H383.029C386.466 420.642 389.26 423.968 389.26 428.077C389.26 432.185 386.466 435.511 383.029 435.511H282.751C279.845 435.511 277.414 433.136 276.715 429.921C276.604 426.232 276.715 420.642 282.751 420.642Z" fill="#5C93D6"/>
<path d="M277.079 424.89C278.057 427.462 280.208 429.223 282.723 429.223H383.002C385.517 429.223 387.668 427.462 388.646 424.918C387.668 422.375 385.489 420.614 383.002 420.614H282.723C279.202 420.642 277.694 422.571 277.079 424.89Z" fill="#5C93D6"/>
<path d="M276.715 429.893C277.414 433.108 279.845 435.483 282.75 435.483H383.029C386.466 435.483 389.26 432.157 389.26 428.049C389.26 426.931 389.065 425.869 388.674 424.918C387.696 422.375 385.516 420.614 383.029 420.614H282.75C279.202 420.614 277.721 422.543 277.106 424.89C276.659 426.539 276.659 428.384 276.715 429.893Z" fill="#6577B0"/>
<path d="M277.079 424.89C278.057 427.462 280.208 429.223 282.723 429.223H383.002C385.517 429.223 387.668 427.462 388.646 424.918C387.668 422.375 385.489 420.614 383.002 420.614H282.723C279.202 420.642 277.694 422.571 277.079 424.89Z" fill="#A5B2D4"/>
<path d="M239.526 278.321L262.8 393.167C263.694 397.555 267.857 400.462 272.272 399.764L275.653 399.232L304.348 394.788C308.846 394.09 311.976 389.925 311.361 385.397L295.966 272.088C295.77 270.551 295.155 269.181 294.261 268.035C292.585 265.883 289.875 264.625 286.997 264.877L247.042 268.287C242.012 268.762 238.52 273.43 239.526 278.321Z" fill="#6577B0"/>
<path d="M250.925 281.116L274.2 395.962C274.451 397.192 274.954 398.282 275.653 399.232L304.348 394.788C308.846 394.09 311.976 389.925 311.361 385.397L295.966 272.088C295.77 270.551 295.155 269.181 294.261 268.035L258.441 271.11C253.44 271.557 249.947 276.225 250.925 281.116Z" fill="#A5B2D4"/>
<path d="M475.876 470.561L463.778 461.505L452.937 469.275L464.42 481.601L475.876 470.561Z" fill="#EFC397"/>
<path d="M421.252 533.476L416.39 519.138L403.063 519.417L405.549 536.075L421.252 533.476Z" fill="#EFC397"/>
<path d="M418.989 526.684C420.414 526.6 421.448 525.343 421.28 523.945C419.268 507.762 408.176 421.145 400.325 412.76C391.663 403.509 361.85 392.161 361.85 392.161C361.85 392.161 307.394 391.155 305.103 403.229C300.632 426.847 380.487 428.999 380.487 432.968C380.487 464.468 398.48 515.923 402.085 525.93C402.448 526.964 403.454 527.606 404.544 527.551L418.989 526.684Z" fill="#22397C"/>
<path d="M510.522 465.25C505.912 468.995 500.827 472.573 495.797 475.843C484.537 483.166 473.696 488.868 469.729 491.16C469.282 491.439 468.583 491.216 468.164 490.657L466.739 488.896L466.599 488.728L492.277 472.573L509.851 461.505C509.851 461.505 512.366 463.769 510.522 465.25Z" fill="#A5B2D4"/>
<path d="M509.851 461.505C510.718 462.818 502.95 468.213 493.897 473.915C482.19 481.265 468.332 489.091 468.332 489.091C467.801 489.427 467.158 489.343 466.739 488.924C466.683 488.868 466.655 488.812 466.599 488.756L462.185 482.244C461.374 481.07 461.626 479.477 462.716 478.582L474.702 468.884C475.177 468.492 475.764 468.297 476.378 468.269C477.552 468.241 479.703 468.185 482.246 468.017C485.878 467.793 490.237 467.318 493.534 466.424C500.324 464.523 508.007 458.71 509.851 461.505Z" fill="#203570"/>
<path d="M451.903 549.659C445.951 549.855 439.749 549.603 433.797 549.184C420.386 548.206 408.315 546.165 403.789 545.578C403.258 545.522 402.839 544.935 402.839 544.237L402.783 541.973V541.749L433.015 544.432L453.691 546.277C453.663 546.249 454.278 549.575 451.903 549.659Z" fill="#A5B2D4"/>
<path d="M453.664 546.249C453.552 547.814 444.108 547.395 433.463 546.445C419.688 545.215 403.93 543.063 403.93 543.063C403.315 543.007 402.84 542.532 402.756 541.945C402.756 541.861 402.756 541.805 402.756 541.721L403.203 533.42C403.259 532.246 404.209 531.324 405.383 531.296L421.393 530.793C421.896 530.765 422.399 530.932 422.79 531.24C423.684 531.911 425.5 533.224 427.735 534.706C430.753 536.718 434.525 538.982 437.682 540.268C444.248 542.895 453.888 542.895 453.664 546.249Z" fill="#203570"/>
<path d="M469.45 466.48C470.623 465.446 470.791 463.685 469.841 462.427C460.23 449.85 412.116 387.465 400.353 384.167C393.34 382.211 291.552 385.872 292.837 394.341C295.743 413.543 296.386 421.201 305.634 424.918C327.959 433.834 394.373 413.515 394.373 413.515C394.373 413.515 412.786 436.601 424.521 448.34C432.457 456.278 449.5 470.756 455.312 475.647C456.458 476.598 458.106 476.57 459.224 475.592L469.45 466.48Z" fill="#253C8C"/>
<path d="M343.437 345.988C342.403 290.563 336.48 283.352 336.48 283.352C336.48 283.352 327.036 275.777 304.907 277.594C286.466 279.103 276.044 291.29 270.875 300.653C270.875 300.653 279.006 356.972 285.069 366.251C291.132 375.531 265.762 464.3 297.111 476.402C313.68 482.803 339.665 468.632 359.252 475.033C379.425 481.629 350.338 424.946 342.375 391.798C341.286 387.27 359.252 384.056 359.252 384.056C359.252 384.056 343.884 369.158 343.437 345.988Z" fill="white"/>
<path d="M329.83 315.383L330.919 314.824C326.924 310.631 327.12 304.734 327.315 299.032C327.483 293.721 327.678 288.215 324.549 283.911C323.543 282.513 322.23 281.284 320.721 279.97C318.57 278.041 316.558 276.42 313.457 275.722C309.768 274.911 305.186 275.722 301.526 276.364C300.408 276.56 299.123 276.784 297.922 277.259C295.826 278.097 294.066 279.662 293.144 281.563C291.216 285.476 293.256 289.054 295.044 292.212L295.379 292.799C298.732 298.78 300.828 305.265 301.554 312.056L302.783 311.777C302.057 304.901 299.961 298.361 296.553 292.324L296.217 291.737C294.401 288.523 292.529 285.225 294.289 281.591C295.072 279.998 296.581 278.628 298.285 277.93C299.291 277.538 300.408 277.343 301.498 277.147C305.186 276.476 309.377 275.75 312.786 276.476C315.636 277.119 317.592 278.684 319.631 280.529C321.084 281.843 322.398 283.016 323.375 284.386C326.393 288.551 326.225 293.973 326.058 299.2C325.89 305.041 325.695 311.05 329.83 315.383Z" fill="#253C8C"/>
<path d="M316.391 334.5C316.335 333.913 316.251 333.354 316.167 332.795C316.083 332.236 316 331.649 315.888 331.09C315.692 329.972 315.469 328.827 315.217 327.736C314.686 325.5 314.072 323.32 313.261 321.168C312.842 320.106 312.395 319.044 311.864 318.01C311.333 316.976 310.719 315.97 309.992 315.019C309.629 314.544 309.21 314.069 308.763 313.622C308.316 313.175 307.785 312.755 307.17 312.392C306.556 312.029 305.857 311.693 304.963 311.525C304.739 311.47 304.488 311.442 304.264 311.414C304.153 311.414 304.013 311.414 303.873 311.386H303.678H303.482C302.951 311.386 302.392 311.47 301.834 311.609L301.415 311.721C301.275 311.777 301.135 311.833 300.967 311.861C300.688 311.973 300.409 312.112 300.157 312.252C299.654 312.56 299.291 312.895 298.984 313.23C298.397 313.901 298.062 314.572 297.838 315.215C297.587 315.858 297.447 316.473 297.335 317.088C297.223 317.702 297.168 318.317 297.14 318.904C297.084 320.106 297.14 321.28 297.279 322.426C297.335 323.013 297.419 323.572 297.503 324.159C297.587 324.718 297.698 325.305 297.782 325.864C298.648 330.364 300.045 334.724 301.778 338.944L302.001 338.861C301.331 336.68 300.688 334.5 300.185 332.292C299.626 330.084 299.151 327.848 298.816 325.584C298.481 323.32 298.229 321.028 298.369 318.681C298.453 317.507 298.593 316.333 299.04 315.131C299.263 314.544 299.57 313.957 300.045 313.426C300.269 313.175 300.548 312.923 300.884 312.755C301.051 312.671 301.219 312.588 301.387 312.504L301.666 312.42L301.973 312.336C302.392 312.252 302.784 312.168 303.175 312.168H303.315H303.454C303.538 312.168 303.65 312.168 303.734 312.196C303.929 312.224 304.125 312.224 304.292 312.28C305.019 312.42 305.661 312.699 306.192 313.035C307.31 313.706 308.148 314.572 308.875 315.494C310.328 317.339 311.361 319.407 312.255 321.476C313.15 323.572 313.876 325.724 314.491 327.904C315.133 330.084 315.664 332.292 316.139 334.528L316.391 334.5Z" fill="#253C8C"/>
<path d="M299.85 338.413C300.074 339.196 300.996 339.587 301.918 339.336C302.84 339.084 303.343 338.218 303.119 337.435C302.896 336.652 301.974 336.261 301.052 336.513C300.13 336.764 299.599 337.631 299.85 338.413Z" fill="black"/>
<path d="M314.631 334.277C314.854 335.059 315.776 335.451 316.698 335.199C317.62 334.948 318.123 334.081 317.9 333.299C317.676 332.516 316.754 332.125 315.832 332.376C314.938 332.656 314.407 333.494 314.631 334.277Z" fill="black"/>
<path d="M325.182 315.576C324.391 312.977 325.904 310.214 328.561 309.404C331.218 308.595 334.013 310.046 334.804 312.645C335.595 315.244 334.083 318.006 331.426 318.816C328.769 319.625 325.973 318.175 325.182 315.576Z" fill="#B3B3B3"/>
<path d="M325.639 315.382C326.366 317.73 328.88 319.044 331.283 318.317C333.686 317.591 335.055 315.075 334.329 312.727C333.602 310.379 331.087 309.066 328.685 309.792C326.31 310.547 324.941 313.035 325.639 315.382Z" fill="#F2F2F2"/>
<path d="M326.363 315.203C325.761 313.225 326.912 311.121 328.934 310.505C330.957 309.889 333.084 310.994 333.687 312.972C334.289 314.951 333.138 317.055 331.116 317.671C329.093 318.287 326.966 317.182 326.363 315.203Z" fill="#CCCCCC"/>
<path d="M668.164 552.761L675.484 551.895L657.323 388.723L639.301 390.819L668.164 552.761Z" fill="#1F3163"/>
<path d="M230.529 552.761L223.209 551.895L241.761 391.071L259.755 393.167L230.529 552.761Z" fill="#1F3163"/>
<path d="M175.374 373.462H687.107L708.677 388.723H196.945L175.374 373.462Z" fill="white"/>
<path d="M196.972 388.723H708.677V397.416H196.972V388.723Z" fill="#A5B2D4"/>
<path d="M196.945 388.723L175.375 373.462V381.344L196.945 397.416V388.723Z" fill="#E5EDF8"/>
<path d="M337.01 369.046L337.737 378.41C337.765 378.633 338.016 378.801 338.268 378.745C338.519 378.689 338.854 378.633 339.246 378.549C340.028 378.41 341.006 378.214 341.928 378.074C342.068 378.046 342.207 378.018 342.347 377.99C342.375 377.99 342.403 377.99 342.459 377.99C342.487 377.99 342.543 377.99 342.571 377.962C342.599 377.962 342.599 377.962 342.627 377.962C343.018 377.907 343.381 377.851 343.66 377.823C343.8 377.823 343.912 377.795 344.051 377.795C344.163 377.795 344.275 377.795 344.387 377.795C344.415 377.795 344.471 377.795 344.499 377.795C344.722 377.795 344.918 377.823 345.169 377.851C346.65 377.99 348.438 378.438 350.757 378.801C354.809 379.444 356.597 379.444 360.369 381.037C363.778 382.49 364.839 382.938 366.46 383.832C367.242 384.251 369.198 383.944 366.655 381.987C362.632 378.913 357.156 376.593 357.323 376.341C357.575 375.978 366.32 380.338 368.863 381.987C370.567 383.105 371.601 381.764 371.182 380.981C370.427 379.556 358.525 373.91 358.86 373.155C359.028 372.764 363.33 375.084 367.382 377.348C370.371 378.997 372.299 380.953 373.361 379.807C375.792 377.18 359.363 370.248 359.363 370.081C359.363 369.661 366.879 372.149 372.746 376.453C373.668 377.124 374.786 375.643 372.942 373.994C369.673 371.087 362.632 368.208 360.844 367.677C358.497 367.006 355.144 365.161 344.973 367.509C344.862 367.537 344.722 367.565 344.61 367.593C344.554 367.593 344.526 367.621 344.471 367.621C344.359 367.649 344.247 367.677 344.135 367.677C343.688 367.761 343.157 367.845 342.543 367.956C342.459 367.956 342.347 367.984 342.263 367.984C342.235 367.984 342.207 367.984 342.152 367.984C342.096 367.984 342.068 367.984 342.012 368.012C341.006 368.152 339.944 368.292 339.022 368.404C338.324 368.487 337.709 368.543 337.346 368.599C337.15 368.683 337.01 368.851 337.01 369.046Z" fill="#F9C5A2"/>
<path d="M342.543 368.012L342.403 378.018C342.431 378.018 342.487 378.018 342.515 377.99C342.543 377.99 342.543 377.99 342.571 377.99C342.962 377.935 343.325 377.879 343.605 377.851C343.744 377.851 343.856 377.823 343.996 377.823C344.107 377.823 344.219 377.823 344.331 377.823L344.471 367.677C344.359 367.705 344.247 367.733 344.135 367.733C343.688 367.845 343.158 367.928 342.543 368.012Z" fill="#253C8C"/>
<path d="M343.866 374.787C342.286 374.621 341.144 373.155 341.316 371.513C341.489 369.87 342.91 368.673 344.49 368.839C346.071 369.005 347.213 370.471 347.04 372.114C346.868 373.756 345.447 374.953 343.866 374.787Z" fill="#253C8C"/>
<path d="M342.515 369.913C341.509 370.863 341.425 372.456 342.319 373.491C343.213 374.525 344.778 374.609 345.784 373.658C346.79 372.708 346.874 371.115 345.98 370.081C345.058 369.047 343.521 368.991 342.515 369.913Z" fill="white"/>
<path d="M339.692 367.509L340 378.969L340.028 379.611H343.073L342.57 367.509H339.692Z" fill="white"/>
<path opacity="0.3" d="M285.097 297.159C295.686 305.712 293.06 311.665 295.966 358.956C296.022 360.074 338.938 366.251 338.938 366.251L291.16 361.5L285.097 297.159Z" fill="#6577B0"/>
<path d="M287.611 299.675C284.035 293.386 269.394 293.665 269.869 305.348C270.763 328.1 277.664 366.559 281.744 372.344C285.823 378.13 341.453 379.947 341.453 379.947L340.475 366.363C340.475 366.363 294.904 361.863 294.764 359.18C294.094 346.547 295.239 313.119 287.611 299.675Z" fill="white"/>
<path d="M295.687 265.296C295.687 265.296 297.364 275.023 297.084 280.78C296.693 288.578 311.082 298.081 311.082 298.081C311.082 298.081 315.385 286.566 315.693 283.52C315.944 281.228 316.056 279.327 315.916 278.237C315.525 274.939 315.302 271.194 315.776 268.259L295.687 265.296Z" fill="#EFC397"/>
<path opacity="0.2" d="M309.965 297.886C309.965 297.886 303.874 295.454 296.022 295.426C296.022 295.454 302.644 286.454 309.965 297.886Z" fill="#054D6D"/>
<path d="M296.777 273.206L309.825 296.572C309.992 296.88 310.328 298.473 310.02 298.277C308.875 297.55 304.796 295.929 302.337 294.308C299.822 292.659 297.559 294.224 296.386 295.259C295.883 295.706 295.1 295.398 295.016 294.728L294.346 280.221L296.777 273.206Z" fill="#253C8C"/>
<path d="M310.216 299.731C310.216 299.731 310.244 299.786 310.272 299.842C310.3 299.898 310.3 299.954 310.328 299.982C310.831 301.324 311.362 302.665 311.921 304.007C311.976 304.175 312.032 304.314 312.116 304.482C314.044 309.261 316.112 314.097 318.207 319.715C318.207 319.743 318.235 319.771 318.235 319.799C318.654 320.805 319.66 321.252 320.582 321.112C320.638 321.112 320.694 321.084 320.722 321.084C321.281 320.945 321.784 320.609 322.119 320.022C322.342 319.603 322.398 319.128 322.231 318.681C321.113 315.746 316.866 304.51 315.385 301.072C313.346 296.321 316.698 293.47 318.766 292.324C319.576 291.877 315.218 271.194 315.553 273.234C317.397 284.833 310.971 292.268 309.853 295.901C309.546 296.908 309.574 298.054 310.216 299.731Z" fill="#F2F2F2"/>
<path opacity="0.05" d="M295.688 265.296C295.688 265.296 295.715 265.352 295.743 265.436C297.643 269.349 303.567 278.824 315.917 278.237C315.525 274.771 315.302 270.83 315.777 267.728L295.688 265.296Z" fill="black"/>
<path d="M290.518 253.892C292.446 264.933 302.477 274.324 310.021 274.911C318.598 275.582 321.309 258.001 319.381 246.961C317.453 235.921 309.546 231.309 301.079 232.79C292.557 234.3 288.562 242.852 290.518 253.892Z" fill="#EFC397"/>
<path d="M302.589 239.582C300.493 239.722 298.817 241.315 298.537 243.383C298.174 246.178 297.14 250.539 294.318 253.362C289.903 257.806 291.161 260.153 291.161 260.153C291.161 260.153 283.365 253.306 284.818 247.548C286.271 241.79 283.058 232.846 294.29 231.365C300.186 230.582 304.516 224.629 310.384 226.809C319.353 230.135 323.796 236.256 323.209 244.166C322.426 254.591 319.493 253.389 319.493 253.389C319.493 253.389 312.982 251.461 309.35 243.998C307.534 240.225 304.824 239.442 302.589 239.582Z" fill="#253C8C"/>
<path d="M293.257 255.486C293.704 254.815 294.235 254.172 293.452 254.312C292.39 254.507 294.123 248.778 290.463 249.141C287.668 249.421 287.417 253.417 287.78 254.983C288.562 258.197 290.518 258.393 291.273 260.433C291.943 262.278 293.676 260.601 292.754 258.56C292.139 257.275 292.67 256.352 293.257 255.486Z" fill="#EFC397"/>
<path d="M315.525 273.262L318.599 292.631C318.599 292.631 325.304 292.491 326.729 293.302C327.148 293.554 327.623 293.078 327.4 292.631L319.521 277.762L315.525 273.262Z" fill="#253C8C"/>
<path d="M457.966 375.726V377.403L401.246 386.99V385.229L457.966 375.726Z" fill="#131F49"/>
<path d="M457.966 375.726L401.246 385.229L373.445 380.478L430.221 372.959L457.966 375.726Z" fill="#A5B2D4"/>
<path d="M373.446 380.478V382.379L401.247 386.99V385.229L373.446 380.478Z" fill="#22397C"/>
<path d="M432.931 272.06C432.931 272.06 499.29 272.759 501.274 273.038C502.28 273.178 505.465 274.408 505.465 274.408L431.254 274.436C431.059 274.436 430.863 274.576 430.807 274.743L412.674 360.494C412.674 360.494 412.562 360.494 412.394 360.494C411.025 360.354 410.159 358.901 410.606 357.615L427.482 276.56C428.293 274.268 430.5 272.088 432.931 272.06Z" fill="#A5B2D4"/>
<path d="M503.453 273.989L434.3 273.094C432.205 273.094 430.305 274.408 429.606 276.364L411.361 358.397C410.97 359.46 411.78 360.55 412.898 360.522L476.63 359.739C478.418 359.683 480.039 358.649 480.877 357.084L507.868 281.283C509.572 277.985 507.169 274.016 503.453 273.989Z" fill="#253C8C"/>
<path d="M448.075 333.494L462.716 333.522C463.051 333.522 463.302 333.829 463.219 334.165L452.657 382.714C452.601 383.021 452.797 383.301 453.104 383.329L482.023 387.158C482.554 387.242 482.637 387.969 482.134 388.164L476.071 390.54C475.988 390.568 475.904 390.596 475.82 390.568L436.871 386.487C436.563 386.459 436.34 386.152 436.424 385.872L447.572 333.913C447.628 333.662 447.851 333.494 448.075 333.494Z" fill="#131F49"/>
<path d="M458.982 315.754C455.625 314.384 454.457 309.462 456.375 304.759C458.292 300.057 462.569 297.356 465.926 298.726C469.284 300.096 470.451 305.019 468.534 309.721C466.616 314.423 462.34 317.124 458.982 315.754Z" fill="#6577B0"/>
<path d="M290.099 385.229L256.207 374.133L234.86 376.789L263.946 387.94L290.099 385.229Z" fill="#253C8C"/>
<path d="M283.645 385.9L280.04 385.425L273.586 386.292L273.306 386.962L283.645 385.9Z" fill="#6577B0"/>
<defs>
<linearGradient id="paint0_linear" x1="645" y1="303.666" x2="501.662" y2="302.529" gradientUnits="userSpaceOnUse">
<stop offset="0.137"/>
<stop offset="0.2528" stop-color="#424242"/>
<stop offset="0.3685" stop-color="#7B7B7B"/>
<stop offset="0.4791" stop-color="#AAAAAA"/>
<stop offset="0.5835" stop-color="#CFCFCF"/>
<stop offset="0.6805" stop-color="#E9E9E9"/>
<stop offset="0.7671" stop-color="#F9F9F9"/>
<stop offset="0.8347" stop-color="white"/>
</linearGradient>
<linearGradient id="paint1_linear" x1="546.588" y1="303.666" x2="403.251" y2="302.529" gradientUnits="userSpaceOnUse">
<stop offset="0.137"/>
<stop offset="0.2528" stop-color="#424242"/>
<stop offset="0.3685" stop-color="#7B7B7B"/>
<stop offset="0.4791" stop-color="#AAAAAA"/>
<stop offset="0.5835" stop-color="#CFCFCF"/>
<stop offset="0.6805" stop-color="#E9E9E9"/>
<stop offset="0.7671" stop-color="#F9F9F9"/>
<stop offset="0.8347" stop-color="white"/>
</linearGradient>
</defs>
</svg>
